<mxfile host="app.diagrams.net" modified="2024-06-04T09:18:19.711Z" agent="Mozilla/5.0 (Windows NT 10.0; Win64; x64) AppleWebKit/537.36 (KHTML, like Gecko) Chrome/125.0.0.0 Safari/537.36 Edg/125.0.0.0" etag="i9qgUmKwmYoYqIpVoPIr" version="24.4.13" type="github">
  <diagram name="第 1 页" id="HvGfLWF3ODSFRQjWF75y">
    <mxGraphModel dx="1877" dy="611" grid="1" gridSize="10" guides="1" tooltips="1" connect="1" arrows="1" fold="1" page="1" pageScale="1" pageWidth="827" pageHeight="1169" math="0" shadow="0">
      <root>
        <mxCell id="0" />
        <mxCell id="1" parent="0" />
        <mxCell id="LW0XuWXyoTBpuvE3GQ-T-1" value="&lt;font face=&quot;Verdana&quot;&gt;A02-BL地图&lt;/font&gt;" style="shape=image;html=1;verticalAlign=top;verticalLabelPosition=bottom;labelBackgroundColor=#ffffff;imageAspect=0;aspect=fixed;image=https://cdn3.iconfinder.com/data/icons/document-icons-2/30/647702-excel-128.png" vertex="1" parent="1">
          <mxGeometry x="45" y="210" width="50" height="50" as="geometry" />
        </mxCell>
        <mxCell id="LW0XuWXyoTBpuvE3GQ-T-3" value="A02-聚合媒体" style="shape=image;html=1;verticalAlign=top;verticalLabelPosition=bottom;labelBackgroundColor=#ffffff;imageAspect=0;aspect=fixed;image=https://cdn3.iconfinder.com/data/icons/document-icons-2/30/647702-excel-128.png" vertex="1" parent="1">
          <mxGeometry x="45" y="320" width="50" height="50" as="geometry" />
        </mxCell>
        <mxCell id="LW0XuWXyoTBpuvE3GQ-T-4" value="A09-魔方世界" style="shape=image;html=1;verticalAlign=top;verticalLabelPosition=bottom;labelBackgroundColor=#ffffff;imageAspect=0;aspect=fixed;image=https://cdn3.iconfinder.com/data/icons/document-icons-2/30/647702-excel-128.png" vertex="1" parent="1">
          <mxGeometry x="45" y="430" width="50" height="50" as="geometry" />
        </mxCell>
        <mxCell id="LW0XuWXyoTBpuvE3GQ-T-6" value="本地协议维护" style="swimlane;whiteSpace=wrap;html=1;" vertex="1" parent="1">
          <mxGeometry x="-10" y="160" width="160" height="480" as="geometry" />
        </mxCell>
        <mxCell id="LW0XuWXyoTBpuvE3GQ-T-7" value="&lt;font style=&quot;font-size: 72px;&quot;&gt;...&lt;/font&gt;" style="text;html=1;align=center;verticalAlign=middle;resizable=0;points=[];autosize=1;strokeColor=none;fillColor=none;rotation=90;" vertex="1" parent="LW0XuWXyoTBpuvE3GQ-T-6">
          <mxGeometry x="60" y="360" width="80" height="100" as="geometry" />
        </mxCell>
        <mxCell id="LW0XuWXyoTBpuvE3GQ-T-12" style="edgeStyle=orthogonalEdgeStyle;rounded=0;orthogonalLoop=1;jettySize=auto;html=1;entryX=0;entryY=0.5;entryDx=0;entryDy=0;" edge="1" parent="1" source="LW0XuWXyoTBpuvE3GQ-T-8" target="LW0XuWXyoTBpuvE3GQ-T-1">
          <mxGeometry relative="1" as="geometry" />
        </mxCell>
        <mxCell id="LW0XuWXyoTBpuvE3GQ-T-8" value="产品经理1" style="shape=umlActor;verticalLabelPosition=bottom;verticalAlign=top;html=1;outlineConnect=0;" vertex="1" parent="1">
          <mxGeometry x="-160" y="205" width="30" height="60" as="geometry" />
        </mxCell>
        <mxCell id="LW0XuWXyoTBpuvE3GQ-T-9" value="产品经理2" style="shape=umlActor;verticalLabelPosition=bottom;verticalAlign=top;html=1;outlineConnect=0;" vertex="1" parent="1">
          <mxGeometry x="-160" y="315" width="30" height="60" as="geometry" />
        </mxCell>
        <mxCell id="LW0XuWXyoTBpuvE3GQ-T-10" value="产品经理3" style="shape=umlActor;verticalLabelPosition=bottom;verticalAlign=top;html=1;outlineConnect=0;" vertex="1" parent="1">
          <mxGeometry x="-160" y="425" width="30" height="60" as="geometry" />
        </mxCell>
        <mxCell id="LW0XuWXyoTBpuvE3GQ-T-14" style="edgeStyle=orthogonalEdgeStyle;rounded=0;orthogonalLoop=1;jettySize=auto;html=1;entryX=0;entryY=0.5;entryDx=0;entryDy=0;" edge="1" parent="1">
          <mxGeometry relative="1" as="geometry">
            <mxPoint x="-130" y="350" as="sourcePoint" />
            <mxPoint x="45" y="350" as="targetPoint" />
          </mxGeometry>
        </mxCell>
        <mxCell id="LW0XuWXyoTBpuvE3GQ-T-15" style="edgeStyle=orthogonalEdgeStyle;rounded=0;orthogonalLoop=1;jettySize=auto;html=1;entryX=0;entryY=0.5;entryDx=0;entryDy=0;" edge="1" parent="1">
          <mxGeometry relative="1" as="geometry">
            <mxPoint x="-130" y="454.5" as="sourcePoint" />
            <mxPoint x="45" y="454.5" as="targetPoint" />
          </mxGeometry>
        </mxCell>
        <mxCell id="LW0XuWXyoTBpuvE3GQ-T-16" value="Vertical Container" style="swimlane;whiteSpace=wrap;html=1;" vertex="1" parent="1">
          <mxGeometry x="230" y="160" width="190" height="480" as="geometry" />
        </mxCell>
      </root>
    </mxGraphModel>
  </diagram>
</mxfile>
